<svg width="26" height="26" viewBox="0 0 26 26" fill="none" xmlns="http://www.w3.org/2000/svg">
<g clip-path="url(#clip0)">
<path d="M24.7824 13.428C24.591 13.6185 24.342 13.7142 24.0921 13.7142C23.8406 13.7142 23.589 13.6177 23.3976 13.4238L22.6238 12.6409V16.2216C22.6238 16.7645 22.185 17.2051 21.6443 17.2051C21.1036 17.2051 20.6648 16.7645 20.6648 16.2216V10.6613L13.2161 3.13311C12.8509 2.81842 12.3127 2.81758 11.9458 3.13059L4.40601 10.6864C4.40601 10.6957 4.40768 10.7049 4.40768 10.715V21.1391C4.40768 22.2233 5.28602 23.1061 6.3666 23.1061H18.7068C19.7865 23.1061 20.6657 22.2242 20.6657 21.1391C20.6657 20.5962 21.1044 20.1556 21.6451 20.1556C22.1858 20.1556 22.6246 20.5962 22.6246 21.1391C22.6246 23.3084 20.8671 25.0723 18.7076 25.0723H6.36576C4.20544 25.0723 2.44877 23.3075 2.44877 21.1391V12.6476L1.67155 13.4263C1.2888 13.8098 0.668696 13.809 0.286774 13.4247C-0.0951474 13.0403 -0.0943117 12.4177 0.288446 12.0342C0.288446 12.0342 10.6129 1.6889 10.6262 1.67631C11.7444 0.676024 13.4284 0.68022 14.5424 1.6847C14.5566 1.69729 24.7874 12.0375 24.7874 12.0375C25.1685 12.4227 25.166 13.0453 24.7824 13.428Z" fill="#A3A5AC"/>
</g>
<defs>
<clipPath id="clip0">
<rect width="25.0714" height="26" fill="white"/>
</clipPath>
</defs>
</svg>
