<svg width="28" height="26" viewBox="0 0 28 26" fill="none" xmlns="http://www.w3.org/2000/svg">
<g clip-path="url(#clip0)">
<path d="M8.97527 17.0809H8.97655C8.97761 17.0809 8.97867 17.0807 8.97974 17.0807H23.7765C24.1408 17.0807 24.4611 16.839 24.5612 16.4888L27.8257 5.06298C27.896 4.81665 27.8467 4.55183 27.6926 4.34738C27.5383 4.14292 27.2971 4.02263 27.041 4.02263H7.09308L6.50968 1.3972C6.42658 1.02378 6.09545 0.758118 5.71289 0.758118H0.816127C0.365344 0.758118 0 1.12346 0 1.57424C0 2.02503 0.365344 2.39037 0.816127 2.39037H5.05829C5.16158 2.85561 7.85012 14.9543 8.00485 15.6503C7.1375 16.0273 6.52902 16.8921 6.52902 17.8968C6.52902 19.2468 7.62739 20.3452 8.9774 20.3452H23.7765C24.2273 20.3452 24.5926 19.9798 24.5926 19.529C24.5926 19.0783 24.2273 18.7129 23.7765 18.7129H8.9774C8.52747 18.7129 8.16127 18.3467 8.16127 17.8968C8.16127 17.4475 8.52619 17.0819 8.97527 17.0809ZM25.959 5.65488L23.1608 15.4484H9.632L7.45566 5.65488H25.959Z" fill="#A3A5AC"/>
<path d="M8.16125 22.7935C8.16125 24.1435 9.25963 25.2419 10.6096 25.2419C11.9596 25.2419 13.058 24.1435 13.058 22.7935C13.058 21.4435 11.9596 20.3451 10.6096 20.3451C9.25963 20.3451 8.16125 21.4435 8.16125 22.7935ZM10.6096 21.9773C11.0596 21.9773 11.4258 22.3435 11.4258 22.7935C11.4258 23.2434 11.0596 23.6096 10.6096 23.6096C10.1597 23.6096 9.79351 23.2434 9.79351 22.7935C9.79351 22.3435 10.1597 21.9773 10.6096 21.9773Z" fill="#A3A5AC"/>
<path d="M19.6959 22.7935C19.6959 24.1435 20.7943 25.2419 22.1443 25.2419C23.4943 25.2419 24.5927 24.1435 24.5927 22.7935C24.5927 21.4435 23.4943 20.3451 22.1443 20.3451C20.7943 20.3451 19.6959 21.4435 19.6959 22.7935ZM22.1443 21.9773C22.5942 21.9773 22.9604 22.3435 22.9604 22.7935C22.9604 23.2434 22.5942 23.6096 22.1443 23.6096C21.6944 23.6096 21.3282 23.2434 21.3282 22.7935C21.3282 22.3435 21.6944 21.9773 22.1443 21.9773Z" fill="#A3A5AC"/>
</g>
<defs>
<clipPath id="clip0">
<rect width="27.8571" height="26" fill="white"/>
</clipPath>
</defs>
</svg>
