<svg width="28" height="26" viewBox="0 0 28 26" fill="none" xmlns="http://www.w3.org/2000/svg">
<path d="M25.3648 23.9598C25.9037 23.2956 26.1126 22.435 25.9413 21.5953C25.8535 21.1775 25.4817 20.8726 25.0515 20.8726C24.9888 20.8726 24.9261 20.8809 24.8635 20.8935C24.3747 20.9937 24.0572 21.4783 24.1575 21.9671C24.2201 22.2679 24.1449 22.577 23.9528 22.8151C23.84 22.953 23.5893 23.1828 23.1757 23.1828H4.8196C4.40602 23.1828 4.15537 22.953 4.04258 22.8151C3.85041 22.577 3.77521 22.2679 3.83788 21.9671C4.28488 19.8115 5.3961 17.8898 7.04623 16.4026C8.68383 14.9279 10.6974 14.0172 12.8739 13.7791C12.9157 13.7749 12.9909 13.7708 13.0159 13.7708C13.0494 13.7666 13.1246 13.7624 13.3334 13.754C13.5047 13.7457 13.7763 13.7415 14.0812 13.7415C14.382 13.7415 14.6577 13.7499 14.8958 13.7624C14.9126 13.7624 14.9293 13.7624 14.946 13.7624C14.971 13.7624 14.9961 13.7624 15.0212 13.7666C18.1167 14.0715 20.8906 15.73 22.6285 18.3243C22.7956 18.5749 23.0797 18.7253 23.3846 18.7253C23.5642 18.7253 23.7397 18.671 23.8901 18.5708C24.0906 18.4371 24.2285 18.2282 24.2744 17.9901C24.3204 17.752 24.2744 17.5097 24.1366 17.3091C22.6285 15.0574 20.381 13.353 17.8159 12.5091L17.7575 12.4924L17.8076 12.4548C19.4201 11.2433 20.3768 9.32167 20.3601 7.31227C20.335 3.83238 17.4817 1 13.9977 1C13.9726 1 13.9434 1 13.9183 1C10.4551 1.04595 7.63944 3.89922 7.63944 7.35822C7.63944 9.38016 8.57104 11.235 10.1961 12.4507L10.2462 12.4883L10.1877 12.5091C8.74649 12.9854 7.42221 13.7123 6.26085 14.6689C4.1136 16.4319 2.62221 18.8924 2.05824 21.5953C1.88279 22.435 2.09166 23.2997 2.63474 23.964C3.17365 24.624 3.98409 25 4.86138 25H23.1799C24.0321 25 24.8259 24.6198 25.3648 23.9598ZM9.45668 7.35822C9.45668 4.8517 11.4953 2.81305 14.0018 2.81305C16.5084 2.81305 18.5428 4.85587 18.5428 7.35822C18.5428 8.53211 18.0958 9.64334 17.2854 10.4956C16.475 11.3436 15.3888 11.8407 14.2274 11.8992C14.077 11.895 13.9308 11.895 13.7846 11.8992C12.6191 11.8449 11.5287 11.3436 10.7225 10.4997C9.90367 9.64752 9.45668 8.53211 9.45668 7.35822Z" fill="#A3A5AC"/>
</svg>
