<svg width="25" height="26" viewBox="0 0 25 26" fill="none" xmlns="http://www.w3.org/2000/svg">
<g clip-path="url(#clip0)">
<path d="M14.2383 0.928589C8.76922 0.928589 4.33482 5.36299 4.33482 10.8321C4.33482 13.2464 5.19706 15.4389 6.62592 17.1634L0.269948 23.4701C-0.0995855 23.8397 -0.0995855 24.4309 0.269948 24.8005C0.467033 24.9729 0.688753 25.0714 0.935108 25.0714C1.18146 25.0714 1.42782 24.9729 1.60027 24.8005L7.95624 18.4937C9.6561 19.898 11.8487 20.7356 14.2383 20.7356C15.9382 20.7356 17.6134 20.2921 19.0915 19.4792C19.535 19.2328 19.7074 18.6416 19.4611 18.1981C19.2147 17.7547 18.6234 17.5822 18.18 17.8286C16.9975 18.4937 15.6425 18.8633 14.263 18.8633C9.85318 18.8633 6.25639 15.2665 6.25639 10.8567C6.25639 6.44696 9.82855 2.82553 14.2383 2.82553C18.6481 2.82553 22.2449 6.42232 22.2449 10.8321C22.2449 12.2363 21.8753 13.5913 21.1855 14.7984C20.9392 15.2419 21.087 15.8331 21.5304 16.0795C21.9739 16.3258 22.5651 16.178 22.8115 15.7346C23.6491 14.2564 24.1172 12.5566 24.1172 10.8321C24.1418 5.36299 19.7074 0.928589 14.2383 0.928589Z" fill="#027CAD"/>
</g>
<defs>
<clipPath id="clip0">
<rect width="24.1429" height="26" fill="white"/>
</clipPath>
</defs>
</svg>
