<svg width="21" height="29" viewBox="0 0 21 29" fill="none" xmlns="http://www.w3.org/2000/svg">
<path fill-rule="evenodd" clip-rule="evenodd" d="M9.47192 28.6293C9.47192 28.6293 9.84261 29 10.0993 29C10.3559 29 10.7266 28.6293 10.7266 28.6293C21.5425 16.191 20.1418 10.0598 20.1366 10.0374V10.0374C20.1366 4.49388 15.6427 0 10.0993 0C4.55577 0 0.0618898 4.49388 0.0618898 10.0374L0.0618819 10.0374C0.0618819 10.0374 -1.36388 16.1681 9.47192 28.6293ZM16.0304 10.0373C16.0304 13.313 13.3749 15.9685 10.0992 15.9685C6.82353 15.9685 4.16806 13.313 4.16806 10.0373C4.16806 6.76165 6.82353 4.10617 10.0992 4.10617C13.3749 4.10617 16.0304 6.76165 16.0304 10.0373Z" fill="#027CAD"/>
</svg>
