<svg width="24" height="24" viewBox="0 0 24 24" fill="none" xmlns="http://www.w3.org/2000/svg">
<path d="M24 13.5408V10.4592L21.0625 9.90584C20.8281 8.8877 20.4261 7.93337 19.8879 7.07334L21.5746 4.60394L19.3961 2.42535L16.9267 4.11209C16.0666 3.57394 15.1129 3.17188 14.0942 2.93753L13.5408 0H10.4592L9.90584 2.93753C8.8877 3.17188 7.93337 3.57394 7.07334 4.11209L4.60394 2.42535L2.42535 4.60394L4.11209 7.07334C3.57394 7.93337 3.17188 8.88713 2.93753 9.90584L0 10.4592V13.5408L2.93753 14.0942C3.17188 15.1123 3.57394 16.0666 4.11209 16.9267L2.42535 19.3961L4.60394 21.5746L7.07334 19.8879C7.93337 20.4261 8.88713 20.8281 9.90584 21.0625L10.4592 24H13.5408L14.0942 21.0625C15.1123 20.8281 16.0666 20.4261 16.9267 19.8879L19.3961 21.5746L21.5746 19.3961L19.8879 16.9267C20.4261 16.0666 20.8281 15.1129 21.0625 14.0942L24 13.5408ZM12.0003 17.1808C9.13898 17.1808 6.81979 14.8616 6.81979 12.0003C6.81979 9.13898 9.13898 6.81979 12.0003 6.81979C14.8616 6.81979 17.1808 9.13898 17.1808 12.0003C17.1808 14.8616 14.8616 17.1808 12.0003 17.1808Z" fill="#027CAD"/>
</svg>
