<svg width="21" height="24" viewBox="0 0 21 24" fill="none" xmlns="http://www.w3.org/2000/svg">
<path d="M4.3291 5.86403C4.3291 2.63108 6.96018 0 10.1931 0C13.4261 0 16.0572 2.63108 16.0572 5.86403C16.0572 9.09698 13.4261 11.7281 10.1931 11.7281C6.96018 11.7281 4.3291 9.09698 4.3291 5.86403Z" fill="#027CAD"/>
<path d="M20.3861 18.724V23.1193C20.3861 23.6052 19.9913 24 19.5054 24H0.880708C0.3948 24 0 23.6052 0 23.1193V18.724C0 17.0868 0.637754 15.5463 1.79455 14.3867C2.9541 13.2272 4.49189 12.5894 6.13183 12.5867H6.24226L6.33889 12.6419C7.50673 13.3072 8.84022 13.6606 10.193 13.6606C11.5458 13.6606 12.8793 13.3072 14.0472 12.6419L14.1438 12.5867H14.2542C15.8914 12.5867 17.432 13.2272 18.5915 14.3867C19.7483 15.5463 20.3861 17.0868 20.3861 18.724Z" fill="#027CAD"/>
</svg>
