<svg width="24" height="20" viewBox="0 0 24 20" fill="none" xmlns="http://www.w3.org/2000/svg">
<path d="M12 19.7647C11.6583 19.7647 11.3289 19.6501 11.0722 19.442C10.1027 18.6573 9.16791 17.9198 8.3432 17.2693L8.33899 17.2659C5.92108 15.3586 3.83313 13.7115 2.38037 12.089C0.756409 10.2751 0 8.55524 0 6.67643C0 4.85101 0.676208 3.16694 1.90393 1.93423C3.1463 0.686948 4.85101 0 6.70459 0C8.08997 0 9.3587 0.405423 10.4755 1.20491C11.0391 1.60847 11.5499 2.10237 12 2.67847C12.4503 2.10237 12.9609 1.60847 13.5247 1.20491C14.6415 0.405423 15.9102 0 17.2956 0C19.149 0 20.8539 0.686948 22.0963 1.93423C23.324 3.16694 24 4.85101 24 6.67643C24 8.55524 23.2438 10.2751 21.6198 12.0888C20.1671 13.7115 18.0793 15.3584 15.6617 17.2656C14.8356 17.9171 13.8994 18.6557 12.9276 19.4423C12.6711 19.6501 12.3415 19.7647 12 19.7647Z" fill="#027CAD"/>
</svg>
