<svg width="19" height="19" viewBox="0 0 19 19" fill="none" xmlns="http://www.w3.org/2000/svg">
<path fill-rule="evenodd" clip-rule="evenodd" d="M5 2.5C5 3.88071 3.88071 5 2.5 5C1.11929 5 0 3.88071 0 2.5C0 1.11929 1.11929 0 2.5 0C3.88071 0 5 1.11929 5 2.5ZM16.5 0.5H9.5C8.397 0.5 7.5 1.397 7.5 2.5C7.5 3.603 8.397 4.5 9.5 4.5H16.5C17.603 4.5 18.5 3.603 18.5 2.5C18.5 1.397 17.603 0.5 16.5 0.5ZM9.5 7.5H16.5C17.603 7.5 18.5 8.397 18.5 9.5C18.5 10.603 17.603 11.5 16.5 11.5H9.5C8.397 11.5 7.5 10.603 7.5 9.5C7.5 8.397 8.397 7.5 9.5 7.5ZM9.5 14.5H16.5C17.603 14.5 18.5 15.397 18.5 16.5C18.5 17.603 17.603 18.5 16.5 18.5H9.5C8.397 18.5 7.5 17.603 7.5 16.5C7.5 15.397 8.397 14.5 9.5 14.5ZM5 16.5C5 17.8807 3.88071 19 2.5 19C1.11929 19 0 17.8807 0 16.5C0 15.1193 1.11929 14 2.5 14C3.88071 14 5 15.1193 5 16.5ZM2.5 12C3.88071 12 5 10.8807 5 9.5C5 8.11929 3.88071 7 2.5 7C1.11929 7 0 8.11929 0 9.5C0 10.8807 1.11929 12 2.5 12Z" fill="#027CAD"/>
</svg>
