<svg width="24" height="24" viewBox="0 0 24 24" fill="none" xmlns="http://www.w3.org/2000/svg">
<path d="M12 0C5.37261 0 0 5.37261 0 12C0 18.6274 5.37261 24 12 24C18.6274 24 24 18.6277 24 12C24 5.37233 18.6274 0 12 0ZM11.9401 18.7107C11.9401 18.7107 11.3833 19.0808 11.0027 19.0792C10.9688 19.0947 10.9488 19.1037 10.9488 19.1037L10.9496 19.0792C10.8697 19.0755 10.7893 19.0642 10.7082 19.0439L10.588 19.0142C9.9233 18.8493 9.57148 18.1903 9.73694 17.5259L10.6622 13.7958L11.0798 12.111C11.4683 10.5467 9.84791 12.4436 9.51558 11.723C9.29619 11.2467 10.776 10.2472 11.8571 9.49355C11.8571 9.49355 12.4134 9.12395 12.7943 9.12537C12.8284 9.10955 12.8485 9.1008 12.8485 9.1008L12.8471 9.12537C12.9275 9.12904 13.008 9.14033 13.089 9.16038L13.2093 9.19031C13.874 9.3552 14.2789 10.0275 14.114 10.6919L13.189 14.4223L12.7705 16.1071C12.3826 17.6713 13.9762 15.7672 14.3082 16.4886C14.5276 16.9643 13.021 17.9571 11.9401 18.7107ZM14.2854 7.0512C14.0544 7.98155 13.113 8.5488 12.183 8.31784C11.2523 8.08687 10.6851 7.14579 10.916 6.21515C11.147 5.28452 12.0884 4.71755 13.0184 4.94852C13.9491 5.1792 14.516 6.12056 14.2854 7.0512Z" fill="#027CAD"/>
</svg>
