<svg width="14" height="14" viewBox="0 0 14 14" fill="none" xmlns="http://www.w3.org/2000/svg">
<g opacity="0.7">
<path d="M7 0C3.14027 0 0 3.14027 0 7C0 10.8597 3.14027 14 7 14C10.8597 14 14 10.8597 14 7C14 3.14027 10.8597 0 7 0ZM7 13.125C3.62262 13.125 0.875004 10.3774 0.875004 7C0.875004 3.62262 3.62262 0.875004 7 0.875004C10.3774 0.875004 13.125 3.62262 13.125 7C13.125 10.3774 10.3774 13.125 7 13.125Z" fill="white"/>
<path d="M7.4375 3.0625C7.4375 2.82088 7.24163 2.625 7 2.625C6.75838 2.625 6.5625 2.82088 6.5625 3.0625V7.18114L9.00634 9.62498C9.17718 9.79582 9.45416 9.79582 9.625 9.62498C9.79583 9.45415 9.79583 9.17717 9.625 9.00633L7.4375 6.81884V3.0625Z" fill="white"/>
</g>
</svg>
