<svg width="55" height="10" viewBox="0 0 55 10" fill="none" xmlns="http://www.w3.org/2000/svg">
<path d="M9.47368 3.92947L6.06789 3.63579L4.73684 0.5L3.40579 3.64053L0 3.92947L2.58632 6.17L1.80947 9.5L4.73684 7.73316L7.66421 9.5L6.8921 6.17L9.47368 3.92947Z" fill="#FF922D"/>
<path d="M20.7343 3.92947L17.3285 3.63579L15.9975 0.5L14.6664 3.64053L11.2606 3.92947L13.8469 6.17L13.0701 9.5L15.9975 7.73316L18.9248 9.5L18.1527 6.17L20.7343 3.92947Z" fill="#FF922D"/>
<path d="M31.9948 3.92947L28.589 3.63579L27.258 0.5L25.9269 3.64053L22.5211 3.92947L25.1074 6.17L24.3306 9.5L27.258 7.73316L30.1853 9.5L29.4132 6.17L31.9948 3.92947Z" fill="#FF922D"/>
<path d="M43.2554 3.92947L39.8496 3.63579L38.5186 0.5L37.1875 3.64053L33.7817 3.92947L36.3681 6.17L35.5912 9.5L38.5186 7.73316L41.4459 9.5L40.6738 6.17L43.2554 3.92947Z" fill="#DFDFDF"/>
<path d="M54.516 3.92947L51.1103 3.63579L49.7792 0.5L48.4481 3.64053L45.0424 3.92947L47.6287 6.17L46.8518 9.5L49.7792 7.73316L52.7066 9.5L51.9345 6.17L54.516 3.92947Z" fill="#DFDFDF"/>
</svg>
